<?xml version="1.0" encoding="UTF-8" standalone="no"?>
<!-- Created with Inkscape (http://www.inkscape.org/) -->

<svg
   width="512"
   height="512"
   viewBox="0 0 512 512"
   version="1.1"
   id="svg5"
   xml:space="preserve"
   inkscape:version="1.2.2 (b0a8486541, 2022-12-01)"
   sodipodi:docname="retro.svg"
   xmlns:inkscape="http://www.inkscape.org/namespaces/inkscape"
   xmlns:sodipodi="http://sodipodi.sourceforge.net/DTD/sodipodi-0.dtd"
   xmlns:xlink="http://www.w3.org/1999/xlink"
   xmlns="http://www.w3.org/2000/svg"
   xmlns:svg="http://www.w3.org/2000/svg"><sodipodi:namedview
     id="namedview7"
     pagecolor="#ffffff"
     bordercolor="#000000"
     borderopacity="0.25"
     inkscape:showpageshadow="2"
     inkscape:pageopacity="0.0"
     inkscape:pagecheckerboard="0"
     inkscape:deskcolor="#d1d1d1"
     inkscape:document-units="px"
     showgrid="false"
     inkscape:zoom="2.0058594"
     inkscape:cx="254.25511"
     inkscape:cy="259.98831"
     inkscape:window-width="1876"
     inkscape:window-height="2107"
     inkscape:window-x="5716"
     inkscape:window-y="0"
     inkscape:window-maximized="0"
     inkscape:current-layer="layer1" /><defs
     id="defs2"><linearGradient
       inkscape:collect="always"
       id="linearGradient5472"><stop
         style="stop-color:#513111;stop-opacity:1;"
         offset="0"
         id="stop5468" /><stop
         style="stop-color:#503111;stop-opacity:1;"
         offset="0.28847668"
         id="stop5476" /><stop
         style="stop-color:#663e14;stop-opacity:1;"
         offset="1"
         id="stop5470" /></linearGradient><linearGradient
       inkscape:collect="always"
       xlink:href="#linearGradient5472"
       id="linearGradient5474"
       x1="0.29138217"
       y1="256.27239"
       x2="154.28991"
       y2="256.27239"
       gradientUnits="userSpaceOnUse" /></defs><g
     inkscape:label="Layer 1"
     inkscape:groupmode="layer"
     id="layer1"><rect
       style="fill:#c6c2b6;fill-opacity:1;stroke-width:1.16813"
       id="rect1066"
       width="512"
       height="148"
       x="0"
       y="0" /><rect
       style="fill:#000000;fill-opacity:1;stroke-width:2.31329"
       id="rect231-7"
       width="512"
       height="198"
       x="0"
       y="148" /><rect
       style="fill:#505050;fill-opacity:1;stroke-width:0.374017"
       id="rect1174-3"
       width="512"
       height="2"
       x="0"
       y="148" /><rect
       style="fill:#c6c2b6;fill-opacity:1;stroke-width:0.936167"
       id="rect1228"
       width="512"
       height="164"
       x="0"
       y="348" /><rect
       style="fill:#4f4f4f;fill-opacity:1;stroke-width:0.374017"
       id="rect1174"
       width="512"
       height="2"
       x="0"
       y="346" /><path
       id="rect3653"
       style="fill:url(#linearGradient5474);stroke:#000000;stroke-width:0;fill-opacity:1"
       d="M 0.29138267,0.97072786 H 154.28991 c 0,105.73217214 -35.3481,185.14423214 -35.3481,277.18439214 l 1.31427,233.41894 -119.96469733,0 z"
       sodipodi:nodetypes="cccccc" /><rect
       style="fill:#afafaf;fill-opacity:1;stroke-width:0.766705"
       id="rect231"
       width="96"
       height="116"
       x="16"
       y="16" /><text
       xml:space="preserve"
       style="font-size:42.6667px;fill:#010100;fill-opacity:1"
       x="128.76492"
       y="411.75018"
       id="text2822-6"><tspan
         sodipodi:role="line"
         id="tspan2820-7"
         x="128.76492"
         y="411.75018"
         style="font-style:normal;font-variant:normal;font-weight:normal;font-stretch:normal;font-size:42.6667px;font-family:'Ubuntu Condensed';-inkscape-font-specification:'Ubuntu Condensed, Normal';font-variant-ligatures:normal;font-variant-caps:normal;font-variant-numeric:normal;font-variant-east-asian:normal;fill:#010100;fill-opacity:1">ISO</tspan></text><text
       xml:space="preserve"
       style="font-style:normal;font-variant:normal;font-weight:bold;font-stretch:normal;font-size:149.333px;font-family:'Nimbus Sans';-inkscape-font-specification:'Nimbus Sans Bold';font-variant-ligatures:normal;font-variant-caps:normal;font-variant-numeric:normal;font-variant-east-asian:normal;fill:#000000;fill-opacity:1"
       x="189.58537"
       y="488.79532"
       id="text2978-5"><tspan
         sodipodi:role="line"
         id="tspan2976-5"
         x="189.58537"
         y="488.79532"
         style="font-style:normal;font-variant:normal;font-weight:normal;font-stretch:normal;font-size:149.333px;font-family:'Ubuntu Condensed';-inkscape-font-specification:'Ubuntu Condensed, Normal';font-variant-ligatures:normal;font-variant-caps:normal;font-variant-numeric:normal;font-variant-east-asian:normal;fill:#000000;fill-opacity:1">AUTO</tspan></text><text
       xml:space="preserve"
       style="font-style:normal;font-variant:normal;font-weight:normal;font-stretch:normal;font-size:154.79px;font-family:'Ubuntu Condensed';-inkscape-font-specification:'Ubuntu Condensed, Normal';font-variant-ligatures:normal;font-variant-caps:normal;font-variant-numeric:normal;font-variant-east-asian:normal;letter-spacing:-10.2813px;fill:#d5d5d5;fill-opacity:1;stroke:#000000;stroke-width:0;stroke-dasharray:none;stroke-opacity:1"
       x="143.61903"
       y="311.75418"
       id="text3078-3"
       transform="scale(1.0393387,0.96215024)"><tspan
         sodipodi:role="line"
         id="tspan5451"
         x="143.61903"
         y="311.75418"
         style="font-style:normal;font-variant:normal;font-weight:bold;font-stretch:normal;font-size:154.79px;font-family:Sawasdee;-inkscape-font-specification:'Sawasdee, Bold';font-variant-ligatures:normal;font-variant-caps:normal;font-variant-numeric:normal;font-variant-east-asian:normal;fill:#d5d5d5;fill-opacity:1;stroke-width:0;stroke-dasharray:none">Retro</tspan></text><g
       id="g7374"
       transform="matrix(1.9442927,0,0,1.9333097,308,28.001063)"
       style="fill:#000000;fill-opacity:1"><path
         fill="#ffffff"
         d="m 25.92,27.74 v -5.92 h 18.16 v 18.87 c 0,1.72 -1.33,2.45 -2.86,2.73 a 77.9,77.9 0 0 1 -8.47,1.17 C 30.48,44.77 28.14,45 21.98,45 12.71,45 0,39.81 0,23.06 0,6.31 12.71,0 22,0 36.14,-0.06 43.9,4.79 44,14.83 h -8.87 c 0,-5.37 -5.75,-8.39 -11.27,-8.39 -8.88,0 -15,7.1 -15,16.62 0,9.52 6.14,16.34 15,16.34 a 66,66 0 0 0 11.2,-0.94 V 27.74 Z"
         id="path7363"
         style="fill:#000000;fill-opacity:1" /><path
         fill="#ffffff"
         d="M 59.55,44.13 H 50.89 V 0.84 h 18.92 c 13,0 17.4,6 17.4,11.14 0,5.48 -2.14,9.37 -5.63,10.68 v 0.12 c 4.31,0.86 5.18,5 7.09,13.26 a 42.65,42.65 0 0 0 2.88,8.1 H 80.76 a 75,75 0 0 1 -2,-8.4 c -1.25,-5.91 -2,-9.12 -5.37,-9.13 H 59.55 Z m 0,-24 h 9.67 c 6.28,0 9,-2.68 8.77,-7.53 C 77.85,9.28 74.77,7.36 69.22,7.36 h -9.67 z"
         id="path7365"
         style="fill:#000000;fill-opacity:1" /></g></g></svg>
